Coordinates
version=1
nRows=17
nColumns=40
inDegrees=yes

Units are S.I. units (second, meters, Newtons, ...)
Angles are in degrees.

endheader
time	pelvis_tilt	pelvis_list	pelvis_rotation	pelvis_tx	pelvis_ty	pelvis_tz	hip_flexion_r	hip_adduction_r	hip_rotation_r	knee_angle_r	knee_angle_r_beta	ankle_angle_r	subtalar_angle_r	mtp_angle_r	hip_flexion_l	hip_adduction_l	hip_rotation_l	knee_angle_l	knee_angle_l_beta	ankle_angle_l	subtalar_angle_l	mtp_angle_l	lumbar_extension	lumbar_bending	lumbar_rotation	arm_flex_r	arm_add_r	arm_rot_r	elbow_flex_r	pro_sup_r	wrist_flex_r	wrist_dev_r	arm_flex_l	arm_add_l	arm_rot_l	elbow_flex_l	pro_sup_l	wrist_flex_l	wrist_dev_l
      4.40500000	     -4.65625381	     -4.70554413	     -7.25215091	      1.00410368	      0.93177869	      0.42838705	     23.10615822	     -1.45183305	    -10.75311627	     11.24345850	     11.24345850	      1.82476812	      9.40950922	      6.76306265	      3.50846796	     -6.22520910	    -18.08178445	     13.25858025	     13.25858025	     13.73762437	     -7.47967871	     -6.89332442	     -9.87736233	      5.80501859	      0.51333680	    -11.89738255	    -11.16548052	     -6.52279856	     28.87775498	     46.58719187	      0.00000000	      0.00000000	     24.74888756	    -21.51477015	    -10.84216633	     63.40513058	     47.18384376	      0.00000000	      0.00000000
      4.41835714	     -4.65747745	     -4.49831115	     -7.23264347	      1.00532094	      0.93057742	      0.42997950	     22.42578951	     -1.29071072	    -11.77121933	      9.73789432	      9.73789432	      1.93464301	     10.74196867	      8.17589681	      2.96110655	     -6.03095340	    -18.20597405	     13.08226512	     13.08226512	     14.07826554	     -7.21165544	     -7.07860893	     -9.65950152	      5.65075055	      0.52518258	    -11.25851588	    -11.17667717	     -6.35854504	     28.90583308	     46.56576341	      0.00000000	      0.00000000	     24.34780129	    -21.04054868	    -10.64258426	     61.53630283	     47.14508624	      0.00000000	      0.00000000
      4.43171429	     -4.66356591	     -4.40635211	     -7.17836678	      1.00673285	      0.92942373	      0.43174919	     21.78687992	     -0.99958419	    -12.35803258	      8.71509435	      8.71509435	      1.64661956	     11.07562387	      8.38164555	      2.45667821	     -5.98268143	    -18.17943967	     13.01590888	     13.01590888	     14.44063936	     -7.17134243	     -7.13080286	     -9.44758514	      5.62807678	      0.47707034	    -10.55474381	    -11.21537327	     -6.30988250	     29.13083325	     46.55431635	      0.00000000	      0.00000000	     23.49673287	    -20.62690601	    -10.42548543	     60.33408828	     47.10587414	      0.00000000	      0.00000000
      4.44507143	     -4.67281861	     -4.26326371	     -7.10895622	      1.00819827	      0.92822108	      0.43359743	     21.49129289	     -0.88520322	    -12.74009658	      8.67746077	      8.67746077	      1.59018938	     10.91381445	      8.31191529	      2.00875365	     -5.89716429	    -18.08101545	     13.04485085	     13.04485085	     14.82420288	     -7.18171986	     -7.24646008	     -9.29281601	      5.52836616	      0.73276021	     -9.88687404	    -11.17568573	     -6.27977874	     29.35710250	     46.54753463	      0.00000000	      0.00000000	     22.58429050	    -19.93942636	    -10.19793414	     59.76141010	     47.07222323	      0.00000000	      0.00000000
      4.45842857	     -4.45771938	     -4.24872889	     -6.98574008	      1.01029491	      0.92748138	      0.43561554	     20.68274721	     -0.66804811	    -13.10988672	      8.40671687	      8.40671687	      0.16881741	     10.68587137	      4.14502179	      1.18020219	     -5.93644338	    -18.21198846	     12.96258638	     12.96258638	     15.62699947	     -6.58215301	     -6.21544921	     -9.05610799	      5.62418360	      0.77535542	     -8.84783899	    -11.34712936	     -5.57499808	     28.79037187	     46.50861114	      0.00000000	      0.00000000	     22.99826504	    -19.16120393	     -9.79718486	     54.59542380	     46.97574408	      0.00000000	      0.00000000
      4.47178571	     -4.28928613	     -4.27050748	     -6.85945892	      1.01229480	      0.92677305	      0.43771237	     20.33075714	     -0.54225049	    -13.17639546	      9.16051329	      9.16051329	      0.12770621	      9.89520207	      3.11163350	      0.44106994	     -6.02189789	    -18.14826378	     12.89842118	     12.89842118	     16.01747682	     -6.44311735	     -6.04281242	     -8.98057119	      5.72902030	      0.53720263	     -7.82445441	    -11.43448494	     -5.58101617	     29.26447621	     46.49386664	      0.00000000	      0.00000000	     21.76810609	    -18.80514575	     -9.52828861	     53.22510878	     46.92405316	      0.00000000	      0.00000000
      4.48514286	     -4.10370790	     -4.28323090	     -6.70031720	      1.01435166	      0.92616128	      0.43993943	     20.12681932	     -0.48454879	    -12.95621891	     10.30601592	     10.30601592	      0.09281548	      8.65911190	      1.38139540	     -0.24712853	     -6.13466768	    -18.06586648	     12.97808082	     12.97808082	     16.48936480	     -6.28866709	     -5.63061273	     -8.89929869	      5.84009628	      0.30283067	     -6.65781937	    -11.52051399	     -5.49606936	     29.57566995	     46.48028819	      0.00000000	      0.00000000	     20.68509433	    -18.38481193	     -9.23767035	     51.18264554	     46.86343248	      0.00000000	      0.00000000
      4.49850000	     -3.90286297	     -4.30145854	     -6.54095599	      1.01648471	      0.92564918	      0.44237290	     19.70827624	     -0.31633046	    -12.16486346	     10.96931614	     10.96931614	     -1.21724794	      6.46913335	     -3.74282732	     -0.74571118	     -6.37604438	    -18.10962767	     13.55562104	     13.55562104	     17.67932248	     -5.65422535	     -3.75280860	     -8.71908969	      5.94970299	      0.72591784	     -5.60875685	    -11.62320420	     -4.93339543	     29.12070731	     46.44954491	      0.00000000	      0.00000000	     20.83176633	    -17.33379775	     -8.64104594	     46.80430019	     46.75480968	      0.00000000	      0.00000000
      4.51185714	     -3.64670976	     -4.34737496	     -6.36445388	      1.01860566	      0.92542617	      0.44480974	     19.61677728	     -0.30974193	    -11.82769696	     12.52486023	     12.52486023	     -0.67050534	      5.21183333	     -4.57754438	     -1.35631944	     -6.60372650	    -17.98655503	     13.93255152	     13.93255152	     18.04197180	     -5.61723802	     -3.50801867	     -8.72838979	      6.07655823	      0.48962910	     -4.35901029	    -11.69826777	     -4.97328683	     29.68662040	     46.43527320	      0.00000000	      0.00000000	     19.41646242	    -16.86943355	     -8.36379812	     45.27842541	     46.69582918	      0.00000000	      0.00000000
      4.52521429	     -3.44128751	     -4.38288664	     -6.15181783	      1.02062508	      0.92530545	      0.44743096	     19.61975669	     -0.25106594	    -11.10341688	     14.08600403	     14.08600403	     -0.02450998	      3.38199636	     -5.33208335	     -1.69134037	     -6.92821704	    -17.82341657	     14.71277035	     14.71277035	     18.43876485	     -5.61044416	     -3.01112476	     -8.67039761	      6.18191045	      0.20391483	     -2.95505190	    -11.72454881	     -4.92922093	     30.11252188	     46.42115702	      0.00000000	      0.00000000	     18.18381149	    -16.39999551	     -8.00528930	     43.00925192	     46.62410351	      0.00000000	      0.00000000
      4.53857143	     -3.14993690	     -4.55486299	     -5.93082255	      1.02267211	      0.92561144	      0.45034454	     19.31641822	      0.05780384	    -10.18592501	     15.21329806	     15.21329806	      0.56881074	      1.33458043	     -5.68346116	     -1.92175267	     -7.52500171	    -17.78612288	     15.96150411	     15.96150411	     19.23594296	     -5.33276310	     -1.68032893	     -8.70530275	      6.41311589	      0.44678211	     -1.63320500	    -11.84354393	     -4.66164578	     30.07328535	     46.40150325	      0.00000000	      0.00000000	     17.80940601	    -15.57242207	     -7.35659943	     39.32020606	     46.51784893	      0.00000000	      0.00000000
      4.55192857	     -2.73643999	     -4.65434538	     -5.70774926	      1.02477491	      0.92618885	      0.45323838	     18.89033137	      0.16264673	     -9.95254766	     16.35671156	     16.35671156	      1.43987323	      0.61526927	     -6.04396075	     -2.28286812	     -7.98953645	    -17.50621171	     17.10080751	     17.10080751	     19.26792211	     -5.67839490	     -1.69176967	     -8.97476880	      6.54286791	      0.53027181	     -0.29638363	    -11.97591623	     -4.72868430	     30.69123902	     46.38969146	      0.00000000	      0.00000000	     16.35761120	    -14.92648646	     -7.12170338	     38.14105725	     46.46426111	      0.00000000	      0.00000000
      4.56528571	     -2.62032353	     -4.68907326	     -5.37850000	      1.02652532	      0.92640590	      0.45616912	     18.80833324	      0.29631634	     -9.41505951	     17.43816584	     17.43816584	      2.28045419	     -0.80722543	     -5.98591295	     -1.82558499	     -8.59424733	    -17.05559185	     19.07948273	     19.07948273	     19.29741963	     -6.17022823	     -1.81840856	     -8.80050306	      6.62369144	     -0.03006031	      1.28482480	    -11.85531447	     -4.76486239	     31.55749159	     46.36467345	      0.00000000	      0.00000000	     14.85249046	    -14.56970042	     -6.75001614	     36.04064062	     46.38987869	      0.00000000	      0.00000000
      4.57864286	     -2.39649447	     -4.79718809	     -5.13558142	      1.02828876	      0.92705499	      0.45947574	     18.40242274	      0.63292015	     -8.70927591	     18.12729840	     18.12729840	      3.30524636	     -2.18338223	     -4.85245279	     -1.42364798	     -9.33492070	    -16.74963194	     21.21907532	     21.21907532	     19.22611364	     -6.54980001	     -1.93378346	     -8.79695048	      6.71683719	      0.16109428	      2.60982665	    -11.99562621	     -4.48060515	     32.41046147	     46.30490090	      0.00000000	      0.00000000	     14.20596142	    -13.84889517	     -5.85128794	     32.49310805	     46.25581797	      0.00000000	      0.00000000
      4.59200000	     -2.16277113	     -4.90692224	     -4.79146406	      1.02992576	      0.92769015	      0.46260279	     17.83581420	      0.83750821	     -8.77321702	     18.52399345	     18.52399345	      4.03135245	     -2.51469112	     -4.91575758	     -0.71582309	    -10.11294154	    -16.05574768	     23.82015675	     23.82015675	     18.77613189	     -7.43790207	     -2.46930361	     -8.86136394	      6.82668515	      0.11265445	      4.04775240	    -12.04148442	     -4.53548244	     33.41112309	     46.27457696	      0.00000000	      0.00000000	     12.69690982	    -13.26165907	     -5.56332462	     31.22568707	     46.19070256	      0.00000000	      0.00000000
      4.60535714	     -2.00928866	     -5.01260189	     -4.43398074	      1.03133476	      0.92822288	      0.46578159	     17.28030249	      1.08087171	     -8.82702250	     18.73830930	     18.73830930	      4.68506096	     -2.87541832	     -4.88182424	      0.34210753	    -10.95185578	    -15.25541055	     26.81310447	     26.81310447	     17.99257955	     -8.51658195	     -3.29376629	     -8.84280927	      6.90619495	     -0.02232905	      5.54218419	    -12.08881225	     -4.54791775	     34.67627527	     46.23057169	      0.00000000	      0.00000000	     11.16563901	    -12.73079422	     -5.21861879	     29.80034461	     46.11661936	      0.00000000	      0.00000000
      4.61871429	     -1.81258990	     -5.12763270	     -4.08101674	      1.03255774	      0.92878685	      0.46890223	     16.60405231	      1.32605518	     -9.03120768	     18.79592977	     18.79592977	      5.24650506	     -3.02090137	     -4.88959196	      1.60592879	    -11.81612913	    -14.31012641	     30.17808462	     30.17808462	     16.88701841	     -9.77790766	     -4.26690130	     -8.89519983	      7.02359585	     -0.01129816	      7.02465926	    -12.20839537	     -4.52896484	     36.06183252	     46.18046006	      0.00000000	      0.00000000	      9.69782962	    -12.16117253	     -4.88798667	     28.54777087	     46.04371281	      0.00000000	      0.00000000
